<svg xmlns="http://www.w3.org/2000/svg" viewBox="0 0 499.95 499.87">
      <g id="a">
        <g id="b">
         <g id="c">
          <g id="d">
            <path d="M430.63,499.87c-2.26,0-4.47-.09-6.68-.31-73.45-7.97-144.86-33.3-206.67-73.31-57.29-36.31-106.99-85.92-143.52-143.31C33.61,221.2,8.16,149.61,.28,76.06-3.15,37.47,25.14,3.67,63.29,.28c2.14-.19,4.21-.28,6.28-.28h68.82c34.2,0,63.69,25.54,68.58,59.67,2.66,20.16,7.55,39.82,14.61,58.71,9.48,25.26,3.29,54.03-15.78,73.19l-15.59,15.59c26.34,40.92,61.22,75.73,102.19,101.98l15.57-15.57c19.36-19.07,48.12-25.21,73.43-15.73,18.79,7.01,38.5,11.9,58.49,14.54,35.04,4.87,60.75,35,60.05,70.16v67.74c.05,18.49-7.13,35.96-20.23,49.13-13.08,13.15-30.53,20.44-49.09,20.46ZM138.16,48.17H69.57c-13.74,1.13-22.39,11.5-21.36,23.21,7.03,65.6,29.87,129.88,66.04,185.5,32.88,51.65,77.45,96.13,128.98,128.79,55.74,36.08,119.88,58.85,185.69,65.97,6.63,.16,12.63-2.19,16.63-6.23,4.02-4.02,6.23-9.38,6.21-15.08v-68.65c.28-10.82-7.62-20.09-18.35-21.59-23.4-3.08-46.64-8.84-68.89-17.12-7.88-3.03-16.72-1.08-22.63,4.77l-28.79,28.79c-7.67,7.64-19.52,9.22-28.91,3.93-60.59-34.39-110.83-84.53-145.33-145.05-5.36-9.43-3.76-21.29,3.9-28.95l28.91-28.91c5.79-5.81,7.67-14.58,4.77-22.3-8.33-22.32-14.14-45.53-17.22-69.03-1.46-10.23-10.54-18.06-21.1-18.06Z"></path>
          </g>
        </g>
      </g>
     </g>
    </svg>