<svg xmlns="http://www.w3.org/2000/svg" id="Layer_2" data-name="Layer 2" viewBox="0 0 470.8 470.45" style="fill:#555555">
      <g id="Layer_1-2" data-name="Layer 1">
        <g id="c">
          <g id="d">
            <path d="m431.37,470.45h-1.1c-.4,0-.8,0-1.3-.1-74.17-7.99-146.44-33.74-209.22-74.27-57.9-36.83-108.2-87.04-145.14-145.14C33.89,188.26,8.14,115.99.15,41.92v-.3c-.9-10.08,2.2-19.76,8.68-27.45C15.72,5.99,25.81,1,37.19.1c.4,0,.8-.1,1.2-.1h74.86c18.97,0,35.24,13.97,37.83,32.54v.2c3.19,24.46,9.28,48.71,17.97,72.07,5.19,13.87,1.8,29.65-8.58,40.13l-31.54,31.54c-3.59,3.59-4.39,9.18-1.8,13.58,36.33,63.69,89.24,116.49,153.02,152.72,1.7.9,3.59,1.4,5.49,1.4,3.09,0,5.89-1.2,8.09-3.29l31.44-31.44c7.19-7.19,16.77-11.08,26.95-11.08,4.69,0,9.28.8,13.68,2.5,22.16,8.38,46.32,14.37,71.97,17.87,19.07,2.6,33.24,19.17,33.04,38.63-.2,18.37,0,74.17,0,74.67,0,10.28-3.89,19.86-11.18,27.15-7.19,7.19-17.47,11.28-28.25,11.28Z"></path>
          </g>
        </g>
      </g>
    </svg>