<svg xmlns="http://www.w3.org/2000/svg" width="45" height="45" viewBox="0 0 88 88" fill="none" style="aspect-ratio: auto 45 / 45;">
                <g filter="url(#filter0_d_1_54)">
                    <rect x="4" y="4" width="80" height="80" rx="40" fill="#7848B9"></rect>
                    <g clip-path="url(#clip0_1_54)">
                        <path d="M32.7772 23.1903C23.9717 24.5192 17.624 31.9611 18.0303 40.5054C18.2334 44.7481 19.9092 48.4887 22.9662 51.5206C26.0233 54.5525 29.9842 56.3047 34.3717 56.5606C35.753 56.6492 36.2709 56.5212 36.8397 55.9601C37.835 55.0053 37.6319 53.3909 36.4334 52.7019C36.0373 52.4853 35.8037 52.4361 34.6662 52.3672C29.6998 52.0423 25.6475 49.3747 23.5248 45.0434C22.2045 42.3462 21.9912 38.7533 22.9865 35.8986C24.642 31.1047 28.867 27.8169 34.067 27.2754C35.4381 27.1278 52.5819 27.1278 53.9733 27.2754C55.9436 27.4822 57.8834 28.1122 59.4576 29.067C60.453 29.6675 60.8592 29.9825 61.8444 30.9275C63.7842 32.7879 65.0233 35.1209 65.4803 37.7886C65.8256 39.7967 65.5616 42.4151 64.8201 44.2953C64.1803 45.9097 62.9514 47.6914 61.6514 48.8825C59.9451 50.4575 58.0764 51.4517 55.7303 52.0423C54.7655 52.2884 54.542 52.2983 51.2615 52.3573C48.2451 52.4065 47.7678 52.4361 47.453 52.5936C46.8944 52.8594 35.9561 61.4037 35.6717 61.7876C35.3569 62.2208 35.2756 63.1658 35.5092 63.6973C35.7022 64.1501 36.2201 64.662 36.6569 64.8294C37.124 65.0262 37.9975 65.0065 38.4139 64.79C38.6069 64.6915 41.0748 62.8212 43.8983 60.6359L49.0272 56.6492L51.8709 56.5901C54.6944 56.5212 55.4561 56.4425 56.9998 56.0586C63.5608 54.4147 68.5475 49.1679 69.7459 42.6514C69.8272 42.169 69.9287 41.2044 69.9694 40.5054C70.3756 31.9414 63.9162 24.4011 55.1209 23.1804C53.6483 22.9737 34.1483 22.9836 32.7772 23.1903Z" fill="white"></path>
                        <path d="M35.6311 37.8476C34.3717 38.2808 33.8436 39.905 34.6155 40.9779C35.5905 42.3167 37.7131 42.1198 38.3631 40.6334C39.0842 38.9403 37.4084 37.2275 35.6311 37.8476Z" fill="white"></path>
                        <path d="M44.1121 37.9559C42.7816 38.6056 42.5176 40.2101 43.5941 41.2437C44.6606 42.2872 46.316 42.0312 46.9863 40.7417C47.4231 39.8754 47.291 39.0092 46.5902 38.3398C45.8996 37.6606 45.0059 37.5326 44.1121 37.9559Z" fill="white"></path>
                        <path d="M52.9983 37.8476C51.7389 38.2808 51.2108 39.905 51.9826 40.9779C52.8561 42.1789 54.6436 42.169 55.517 40.9681C55.9233 40.407 56.0045 39.5014 55.6998 38.9206C55.1615 37.8969 54.085 37.4736 52.9983 37.8476Z" fill="white"></path>
                    </g>
                </g>
                <defs>
                    <filter id="filter0_d_1_54" x="0" y="0" width="88" height="88" filterUnits="userSpaceOnUse" color-interpolation-filters="sRGB">
                        <feFlood flood-opacity="0" result="BackgroundImageFix"></feFlood>
                        <feColorMatrix in="SourceAlpha" type="matrix" values="0 0 0 0 0 0 0 0 0 0 0 0 0 0 0 0 0 0 127 0" result="hardAlpha"></feColorMatrix>
                        <feOffset></feOffset>
                        <feGaussianBlur stdDeviation="2"></feGaussianBlur>
                        <feComposite in2="hardAlpha" operator="out"></feComposite>
                        <feColorMatrix type="matrix" values="0 0 0 0 0 0 0 0 0 0 0 0 0 0 0 0 0 0 0.25 0"></feColorMatrix>
                        <feBlend mode="normal" in2="BackgroundImageFix" result="effect1_dropShadow_1_54"></feBlend>
                        <feBlend mode="normal" in="SourceGraphic" in2="effect1_dropShadow_1_54" result="shape"></feBlend>
                    </filter>
                    <clipPath id="clip0_1_54">
                        <rect width="52" height="42" fill="white" transform="translate(18 23)"></rect>
                    </clipPath>
                </defs>
            </svg>