<svg xmlns="http://www.w3.org/2000/svg" id="Layer_2" data-name="Layer 2" viewBox="0 0 500 434.2" width="21px" height="20px">
    <g id="Layer_1-2" data-name="Layer 1">
      <g>
        <path id="Path_1119" data-name="Path 1119" d="m468.36,63.29H31.64C14.21,63.18.1,49.08,0,31.64h0C.1,14.21,14.21.1,31.64,0h436.71c17.43.1,31.54,14.21,31.64,31.64h0c0,17.48-14.17,31.64-31.64,31.64Z"></path>
        <path id="Path_1119-2" data-name="Path 1119" d="m468.36,434.2H31.64c-17.43-.1-31.54-14.21-31.64-31.64h0c.1-17.43,14.21-31.54,31.64-31.64h436.71c17.43.1,31.54,14.21,31.64,31.64h0c0,17.48-14.17,31.64-31.64,31.64Z"></path>
        <path id="Path_1119-3" data-name="Path 1119" d="m468.36,248.74H31.64c-17.43-.1-31.54-14.21-31.64-31.64h0c.1-17.43,14.21-31.54,31.64-31.64h436.71c17.43.1,31.54,14.21,31.64,31.64h0c0,17.48-14.17,31.64-31.64,31.64Z"></path>
      </g>
    </g>
  </svg>