<svg xmlns="http://www.w3.org/2000/svg" style="" fill="#FFAF13" width="23px" height="21px" viewBox="0 0 298.04 500"><defs><style>.e{fill:#222;}</style></defs><g id="a"></g><g id="b"><g id="c"><g><path d="M237.3,461.62H60.74c-10.58,0-19.19,8.61-19.19,19.19s8.61,19.19,19.19,19.19H237.3c10.58,0,19.19-8.61,19.19-19.19s-8.61-19.19-19.19-19.19Z"></path><g id="d"><path class="e" d="M149.02,419.49l-12.74-14.11C130.71,399.21,0,253.31,0,149.01,.08,66.71,66.86,0,148.9,0h.35c82.12,.07,148.86,66.94,148.79,149.03,0,104.27-130.7,250.18-136.27,256.35l-12.74,14.11Zm-.12-385.15c-63.13,0-114.5,51.33-114.56,114.47,0,73.8,82.4,179.93,114.68,218.68,32.28-38.75,114.67-144.85,114.67-218.48,.07-63.18-51.29-114.6-114.46-114.67h-.34Zm.12,178.93c-35.44,0-64.27-28.84-64.27-64.28s28.83-64.26,64.27-64.26,64.26,28.82,64.26,64.26-28.83,64.28-64.26,64.28Zm0-94.19c-16.5,0-29.93,13.41-29.93,29.91s13.43,29.94,29.93,29.94,29.91-13.44,29.91-29.94-13.41-29.91-29.91-29.91Z"></path></g></g></g></g></svg>