<svg width="55" height="44" viewBox="0 0 55 44" fill="none" xmlns="http://www.w3.org/2000/svg">
<path d="M0.6 44V29.8C0.6 24.3333 1.46667 19.2667 3.2 14.6C5.06667 9.93333 8.2 5.33333 12.6 0.799995L20.4 6.59999C16.9333 10.4667 14.5333 14 13.2 17.2C12 20.2667 11.4 23.5333 11.4 27L6.6 23.6H21V44H0.6ZM34.2 44V29.8C34.2 24.3333 35.0667 19.2667 36.8 14.6C38.6667 9.93333 41.8 5.33333 46.2 0.799995L54 6.59999C50.5333 10.4667 48.1333 14 46.8 17.2C45.6 20.2667 45 23.5333 45 27L40.2 23.6H54.6V44H34.2Z" fill="#FED250"/>
</svg>
